<svg width="64" height="64" viewBox="0 0 64 64" fill="none" xmlns="http://www.w3.org/2000/svg">
  <!-- Instagram gradient background -->
  <defs>
    <linearGradient id="instagramGradient" x1="0%" y1="0%" x2="100%" y2="100%">
      <stop offset="0%" style="stop-color:#833AB4;stop-opacity:1" />
      <stop offset="25%" style="stop-color:#C13584;stop-opacity:1" />
      <stop offset="50%" style="stop-color:#E1306C;stop-opacity:1" />
      <stop offset="75%" style="stop-color:#FD1D1D;stop-opacity:1" />
      <stop offset="100%" style="stop-color:#F77737;stop-opacity:1" />
    </linearGradient>
  </defs>
  
  <!-- Rounded rectangle background -->
  <rect x="4" y="4" width="56" height="56" rx="16" ry="16" fill="url(#instagramGradient)"/>
  
  <!-- Instagram camera icon -->
  <rect x="14" y="14" width="36" height="36" rx="8" ry="8" fill="none" stroke="white" stroke-width="3"/>
  
  <!-- Camera lens -->
  <circle cx="32" cy="32" r="10" fill="none" stroke="white" stroke-width="3"/>
  
  <!-- Camera flash/dot -->
  <circle cx="42" cy="22" r="2" fill="white"/>
  
  <!-- AI automation indicator (small gear) -->
  <g transform="translate(46, 46) scale(0.8)">
    <circle cx="6" cy="6" r="3" fill="none" stroke="white" stroke-width="1.5"/>
    <path d="M6 2L6 4M6 8L6 10M10 6L8 6M4 6L2 6M8.5 3.5L7.5 4.5M4.5 7.5L3.5 8.5M8.5 8.5L7.5 7.5M4.5 4.5L3.5 3.5" stroke="white" stroke-width="1" stroke-linecap="round"/>
  </g>
  
  <!-- Message bubble indicator -->
  <g transform="translate(12, 46) scale(0.7)">
    <path d="M4 4h8c1.1 0 2 .9 2 2v6c0 1.1-.9 2-2 2H6l-2 2V6c0-1.1.9-2 2-2z" fill="white" opacity="0.9"/>
  </g>
</svg>